<svg xmlns="http://www.w3.org/2000/svg" viewBox="0 0 247.37 24.24"><defs><style>.cls-1{fill:#c5212d;}.cls-2{fill:#eea9ad;}</style></defs><g id="Camada_2" data-name="Camada 2"><g id="Camada_1-2" data-name="Camada 1"><path class="cls-1" d="M1.11,7c0,.11,0,.24,0,.35,0,.87.08,1.73,0,2.6,0,.61,0,1.23,0,1.84A13.67,13.67,0,0,0,1.32,14a4.49,4.49,0,0,0,.29.92,2.32,2.32,0,0,0,.18.28l.13.12.15.12s.16.05,0,0a.33.33,0,0,0,.13,0c.15,0-.09,0,0,0s.16,0,0,0c0,0,.16-.05.07,0a.52.52,0,0,0,.19-.17,4,4,0,0,0,.57-2.16A35.64,35.64,0,0,0,3,6.88c-.06-.69,1-.67,1.08,0,.1,1.25.18,2.49.2,3.75a22.66,22.66,0,0,1-.13,2.85,5.15,5.15,0,0,1-.66,2.39,1.61,1.61,0,0,1-2.7-.17,4.82,4.82,0,0,1-.63-1.94A16.1,16.1,0,0,1,0,11.45c0-.63,0-1.26,0-1.89A24.29,24.29,0,0,1,0,7C.1,6.32,1.16,6.3,1.11,7Z"/><path class="cls-1" d="M9.71,6.8v9.25a.52.52,0,0,1-1,0v-5.7c-.2.68-.41,1.36-.62,2a.52.52,0,0,1-1,0l-.72-2.25v6a.53.53,0,0,1-1,0V6.8a.53.53,0,0,1,1-.14c.4,1.27.82,2.55,1.23,3.84.38-1.29.77-2.57,1.16-3.84A.52.52,0,0,1,9.71,6.8Z"/><path class="cls-1" d="M14.14,16.08c-.08-.85-.17-1.69-.25-2.55h-1.8c-.12.86-.23,1.7-.31,2.55-.08.68-1.16.68-1.1,0,.13-1.22.29-2.43.49-3.66a25.92,25.92,0,0,1,1.32-5.75.59.59,0,0,1,.53-.4h.76a.57.57,0,0,1,.55.55c.31,3.08.6,6.18.9,9.26C15.3,16.76,14.2,16.76,14.14,16.08Zm-.36-3.63c-.14-1.63-.31-3.24-.47-4.86a29.42,29.42,0,0,0-1.06,4.86Z"/><path class="cls-1" d="M23.17,14.11a6,6,0,0,1-.64,1.83,1.32,1.32,0,0,1-1.78.47.5.5,0,0,1-.26-.28A3.5,3.5,0,0,1,20,14.89,17.63,17.63,0,0,1,19.75,13a22.64,22.64,0,0,1-.14-3.29,10.06,10.06,0,0,1,.3-1.89,2.72,2.72,0,0,1,.73-1.39c1.19-1,2.21.68,2.53,1.68.21.66-.84,1-1.05.29a2.45,2.45,0,0,0-.43-.89,1.14,1.14,0,0,0-.31-.29s0,0-.05,0a1.68,1.68,0,0,0-.22.39,7.22,7.22,0,0,0-.42,2.76c0,.95.08,1.9.19,2.85a6.11,6.11,0,0,0,.5,2.23.11.11,0,0,0,.07,0,.18.18,0,0,0,.06,0,1.29,1.29,0,0,0,.24-.4,11.16,11.16,0,0,0,.37-1.25C22.32,13.15,23.38,13.44,23.17,14.11ZM21.38,7.22h0Z"/><path class="cls-1" d="M27.69,12a11.86,11.86,0,0,1-.3,2.21A6.81,6.81,0,0,1,26.76,16a1.29,1.29,0,0,1-1.76.47.42.42,0,0,1-.26-.28,3.83,3.83,0,0,1-.47-1.3A14.81,14.81,0,0,1,24,13a20.44,20.44,0,0,1-.13-3.23,7.51,7.51,0,0,1,.41-2.16c.21-.52.51-1.16,1.11-1.28a1.66,1.66,0,0,1,1.6,1,5.56,5.56,0,0,1,.64,2.17A12.38,12.38,0,0,1,27.69,12Zm-1.24-3.1c-.11-.49-.32-1.29-.81-1.55h0l-.08.08a2.56,2.56,0,0,0-.33.71A11.52,11.52,0,0,0,25,12a19.27,19.27,0,0,0,.23,2.16,4.15,4.15,0,0,0,.39,1.39,0,0,0,0,1,0,0v0h0l0,0a.19.19,0,0,0,.07-.06,2.11,2.11,0,0,0,.26-.5,10.94,10.94,0,0,0,.37-1.39A11.43,11.43,0,0,0,26.45,8.92Zm-.86-1.57.21,0Z"/><path class="cls-1" d="M31.16,16.63H29a.54.54,0,0,1-.54-.55V7a.55.55,0,0,1,1.09,0v8.53h1.6A.55.55,0,0,1,31.16,16.63Z"/><path class="cls-1" d="M36.07,6.93v9.15a.55.55,0,0,1-1.1,0v-4A7,7,0,0,1,33.76,12v4a.55.55,0,0,1-1.1,0V6.93a.55.55,0,0,1,1.1,0v4A5.57,5.57,0,0,0,35,11V6.93A.55.55,0,0,1,36.07,6.93Z"/><path class="cls-1" d="M39.42,16.52H37.57A.56.56,0,0,1,37,16V6.77a.54.54,0,0,1,.54-.53h1.85a.54.54,0,0,1,0,1.08H38.1v4.15h1.11a.54.54,0,0,1,0,1.08H38.1v2.89h1.32A.54.54,0,0,1,39.42,16.52Z"/><path class="cls-1" d="M44,16.93a.4.4,0,0,0,.12.1.51.51,0,0,0,.75-.4,3.29,3.29,0,0,0-.23-1.11c-.16-.66-.27-1.33-.46-2a7.4,7.4,0,0,0-.8-1.69,1.56,1.56,0,0,0,.47-.61,5.58,5.58,0,0,0,.26-2.44,3,3,0,0,0-.41-1.61,2.38,2.38,0,0,0-2.14-.71.55.55,0,0,0-.52.39.5.5,0,0,0-.08.29v9a.56.56,0,0,0,1.11,0v-3.9c.67.24.93,1,1.09,1.65s.27,1.17.4,1.75l.21.83A1.09,1.09,0,0,0,44,16.93Zm-1-6.59a1.17,1.17,0,0,1-.24.63c-.13.17-.41.14-.6.11h0V7.58a1.31,1.31,0,0,1,.39,0,.6.6,0,0,1,.21.08l.1.08a1.58,1.58,0,0,1,.21.85A6.92,6.92,0,0,1,42.91,10.34Z"/><path class="cls-1" d="M52.72,11.19a18.29,18.29,0,0,1-.19,2.57A4.8,4.8,0,0,1,52,15.4a2.43,2.43,0,0,1-2.35,1.15.61.61,0,0,1-.26-.08.5.5,0,0,1-.29-.47V6.67a.52.52,0,0,1,.4-.51l.37-.07a2.3,2.3,0,0,1,1.86.78C52.72,8.05,52.75,9.74,52.72,11.19ZM51.62,10A4.82,4.82,0,0,0,51.19,8a1.47,1.47,0,0,0-.68-.71l0,0H50.4a.8.8,0,0,0-.2-.07h0v8.26h0l.27-.07h0l.11-.07.08,0,.06,0s.17-.2.15-.15a2.12,2.12,0,0,0,.26-.48,6.76,6.76,0,0,0,.37-1.84A19.82,19.82,0,0,0,51.62,10Z"/><path class="cls-1" d="M56.08,16.52H54.22a.55.55,0,0,1-.53-.55V6.77a.53.53,0,0,1,.53-.53h1.86a.54.54,0,0,1,0,1.08H54.75v4.15h1.12a.54.54,0,0,1,0,1.08H54.75v2.89h1.33A.54.54,0,0,1,56.08,16.52Z"/><path class="cls-1" d="M77.9,7.83a13.08,13.08,0,0,0,.5-1.29A1.26,1.26,0,0,0,78.25,6,2.65,2.65,0,0,0,78,5.73a.85.85,0,0,0-.39-.16l-.34,0a1.77,1.77,0,0,0-.69.29c-.3.18-1,1.32-1.49,1.74s-1.75,2-2.48,2.8c-.22.21-.44.46-.68.74s-.49.59-.77.94c.43-1.32,1.08-3.47,1.23-4.3a2.61,2.61,0,0,0-.26-2,.74.74,0,0,0-.77-.35,3.41,3.41,0,0,0-2.13,1.32,44.49,44.49,0,0,0-2.79,4.45c.22-.8.58-2.19.81-2.79a7.54,7.54,0,0,0,.13-2.54.91.91,0,0,0-.55-.6A1.39,1.39,0,0,0,66,5.15a.84.84,0,0,0-.57.36.81.81,0,0,0-.14.64,21.44,21.44,0,0,1-.1,3c-.11.57-.26,1.24-.47,2s-.45,1.6-.76,2.49-.61,1.76-.93,2.62-.65,1.65-1,2.4a15.24,15.24,0,0,1-1,1.87,1,1,0,0,0-.1.67.72.72,0,0,0,.36.5,1.37,1.37,0,0,0,.43.13,2.18,2.18,0,0,0,.57,0,3.74,3.74,0,0,0,.53-.13.56.56,0,0,0,.34-.24A6.94,6.94,0,0,0,64,19.49a10.1,10.1,0,0,1,1-2.32c.56-1,1.15-2.1,1.77-3.19s1.24-2.07,1.85-3c.38-.58.72-1,1-1.41s.7-1.2.89-1.39c-.11.47-.43,1.62-.65,2.3s-.42,1.3-.61,1.86c-.43,1.33-.82,2.63-1.18,3.9a8.81,8.81,0,0,0-.34,3.43l.07.45a.84.84,0,0,0,.39.5.77.77,0,0,0,.61.11,1.3,1.3,0,0,0,.74-.55,1.21,1.21,0,0,0,.29-1,4.69,4.69,0,0,1,.39-2.42,13.86,13.86,0,0,1,2-3.33,23.83,23.83,0,0,1,1.55-1.86c.52-.54,1.83-2.35,2.26-2.76-.2.6-1.27,2.55-1.54,3.2-.54,1.38-1,2.68-1.46,3.91s-.77,2.35-1,3.37A12.81,12.81,0,0,0,71.62,22a3.33,3.33,0,0,0,.43,1.86.83.83,0,0,0,.33.29.77.77,0,0,0,.38.1.63.63,0,0,0,.46-.13.92.92,0,0,0,.3-.39,2.94,2.94,0,0,0,.24-.63,2.56,2.56,0,0,0,.12-.64A.88.88,0,0,0,73.8,22a2.31,2.31,0,0,1-.18-1.57,16.51,16.51,0,0,1,.53-2.4c.26-.89.56-1.8.91-2.75s.66-1.82,1-2.62.61-1.57.82-2.13S77.81,8.17,77.9,7.83Z"/><path class="cls-1" d="M239.36,13.12c-10.06-.85-19.59,3-29.23,5.17-10.58,2.4-21.35,1.72-31.94-.29C158.26,14.22,138.62,6.07,118,8.29a52.33,52.33,0,0,0-15.17,3.85c-2.75,1.19-5.27,2.85-7.93,4.23a27,27,0,0,1-2.68,1.23,8.88,8.88,0,0,1-3.24.94,1,1,0,0,1-.66-.21c-.78-.63-.71-2.36-.67-3.23A32.6,32.6,0,0,1,88,11.84a.56.56,0,0,0,.14-.09.43.43,0,0,0,.11-.12.26.26,0,0,1,.08-.13l.13-.17A51.92,51.92,0,0,0,91.8,7a18.83,18.83,0,0,0,1.71-2.92A4.75,4.75,0,0,0,94,2.27a3,3,0,0,0-.24-1.12A2.51,2.51,0,0,0,93,.33,2.94,2.94,0,0,0,91.17,0,1.88,1.88,0,0,0,90,.7,7.27,7.27,0,0,0,88.9,2.27,16.83,16.83,0,0,0,88,4.36c-.27.75-.5,1.49-.69,2.21S87,7.93,86.86,8.5s-.22,1-.28,1.28c-.16.82-.31,1.76-.44,2.82A18.48,18.48,0,0,0,86,14.8s0,0-.08-.06a.83.83,0,0,0-.41-.09,2.59,2.59,0,0,0-.48,0,1.74,1.74,0,0,0-.45.17.75.75,0,0,0-.31.27A7.28,7.28,0,0,1,82.65,17a5.08,5.08,0,0,1-2.36,1.09,2.33,2.33,0,0,1-2-.32.87.87,0,0,1-.14-.34,2.69,2.69,0,0,1-.08-.79,5.25,5.25,0,0,0,1.22-.53,11.24,11.24,0,0,0,1.31-.89c.44-.34.89-.71,1.33-1.1s.85-.77,1.24-1.16.62-.65,1-1.11a15.31,15.31,0,0,0,1.18-1.52,10.68,10.68,0,0,0,1-1.7,3.4,3.4,0,0,0,.32-1.61,2.08,2.08,0,0,0-.11-.57,1.74,1.74,0,0,0-.41-.64,1.9,1.9,0,0,0-.84-.5,4,4,0,0,0-3.73.72,10.08,10.08,0,0,0-1.9,2,17.58,17.58,0,0,0-1.51,2.51,20.33,20.33,0,0,0-1,2.39c-.13.36-.27.83-.42,1.39a12.14,12.14,0,0,0-.32,1.72,6.14,6.14,0,0,0,.05,1.72,2.12,2.12,0,0,0,.73,1.3,3.44,3.44,0,0,0,2.39.81,5.58,5.58,0,0,0,1.06-.1,7.19,7.19,0,0,0,1.71-.53,9.52,9.52,0,0,0,1.59-.89,8.67,8.67,0,0,0,1.34-1.14,7,7,0,0,0,.76-1,9.36,9.36,0,0,0,.33,2,2.71,2.71,0,0,0,1.47,1.78,3.21,3.21,0,0,0,2.26-.1c.84-.25,1.65-.61,2.46-.94a38.26,38.26,0,0,0,4.32-2.1c1.14-.63,2.28-1.28,3.43-1.9a47.06,47.06,0,0,1,13.84-4.68c10-1.78,20.18-.79,30,1.18,20.31,4.07,40.61,12.37,61.67,9.12,11.23-1.73,22-7,33.54-6C240.32,14.71,240.32,13.21,239.36,13.12ZM88.82,7.52c.09-.3.17-.61.26-.94a19.32,19.32,0,0,1,1.41-3.72,3.93,3.93,0,0,1,.82-1.16,2.21,2.21,0,0,1,.68,0c.15.05.25.1.28.16a.75.75,0,0,1,0,.35,2.84,2.84,0,0,1-.3,1,16.19,16.19,0,0,1-1.09,2A30.47,30.47,0,0,1,88.6,8.46C88.66,8.14,88.74,7.82,88.82,7.52ZM78.5,14.15a3.88,3.88,0,0,1,.21-.63A19.17,19.17,0,0,1,79.82,11a15.06,15.06,0,0,1,1.32-2.09,7.44,7.44,0,0,1,1.41-1.44,2.42,2.42,0,0,1,1.32-.57h.23a2.1,2.1,0,0,1,.56.07c.19,0,.28.13.28.26a3.16,3.16,0,0,1-.65,1.71,16.17,16.17,0,0,1-1.69,2.19,24.46,24.46,0,0,1-2.18,2.14,14.25,14.25,0,0,1-2.07,1.51C78.39,14.55,78.44,14.35,78.5,14.15Z"/><path class="cls-1" d="M247,13.31a3,3,0,0,0-.68-.12l-.44,0-.76,4.13.41.14a2.63,2.63,0,0,0,.69.12l.43,0,.77-4.12Z"/><path class="cls-1" d="M240.13,11.83a2.56,2.56,0,0,0-.68-.13l-.44,0-.76,4.12.41.14a2.71,2.71,0,0,0,.69.13l.43,0,.77-4.13Z"/><path class="cls-1" d="M242.49,11.88a2.36,2.36,0,0,0-.74-.14h-.41l-1,5.45.38.16a2,2,0,0,0,.72.14h.44l1-5.45Z"/><path class="cls-1" d="M244.87,11.91a2,2,0,0,0-.76-.14h-.41l-1.12,6,.36.16a1.66,1.66,0,0,0,.7.15h.08l.4,0,1.12-6.05Z"/><path class="cls-1" d="M1.11,7c0,.11,0,.24,0,.35,0,.87.08,1.73,0,2.6,0,.61,0,1.23,0,1.84A13.67,13.67,0,0,0,1.32,14a4.49,4.49,0,0,0,.29.92,2.32,2.32,0,0,0,.18.28l.13.12.15.12s.16.05,0,0a.33.33,0,0,0,.13,0c.15,0-.09,0,0,0s.16,0,0,0c0,0,.16-.05.07,0a.52.52,0,0,0,.19-.17,4,4,0,0,0,.57-2.16A35.64,35.64,0,0,0,3,6.88c-.06-.69,1-.67,1.08,0,.1,1.25.18,2.49.2,3.75a22.66,22.66,0,0,1-.13,2.85,5.15,5.15,0,0,1-.66,2.39,1.61,1.61,0,0,1-2.7-.17,4.82,4.82,0,0,1-.63-1.94A16.1,16.1,0,0,1,0,11.45c0-.63,0-1.26,0-1.89A24.29,24.29,0,0,1,0,7C.1,6.32,1.16,6.3,1.11,7Z"/><path class="cls-1" d="M9.71,6.8v9.25a.52.52,0,0,1-1,0v-5.7c-.2.68-.41,1.36-.62,2a.52.52,0,0,1-1,0l-.72-2.25v6a.53.53,0,0,1-1,0V6.8a.53.53,0,0,1,1-.14c.4,1.27.82,2.55,1.23,3.84.38-1.29.77-2.57,1.16-3.84A.52.52,0,0,1,9.71,6.8Z"/><path class="cls-1" d="M14.14,16.08c-.08-.85-.17-1.69-.25-2.55h-1.8c-.12.86-.23,1.7-.31,2.55-.08.68-1.16.68-1.1,0,.13-1.22.29-2.43.49-3.66a25.92,25.92,0,0,1,1.32-5.75.59.59,0,0,1,.53-.4h.76a.57.57,0,0,1,.55.55c.31,3.08.6,6.18.9,9.26C15.3,16.76,14.2,16.76,14.14,16.08Zm-.36-3.63c-.14-1.63-.31-3.24-.47-4.86a29.42,29.42,0,0,0-1.06,4.86Z"/><path class="cls-1" d="M23.17,14.11a6,6,0,0,1-.64,1.83,1.32,1.32,0,0,1-1.78.47.5.5,0,0,1-.26-.28A3.5,3.5,0,0,1,20,14.89,17.63,17.63,0,0,1,19.75,13a22.64,22.64,0,0,1-.14-3.29,10.06,10.06,0,0,1,.3-1.89,2.72,2.72,0,0,1,.73-1.39c1.19-1,2.21.68,2.53,1.68.21.66-.84,1-1.05.29a2.45,2.45,0,0,0-.43-.89,1.14,1.14,0,0,0-.31-.29s0,0-.05,0a1.68,1.68,0,0,0-.22.39,7.22,7.22,0,0,0-.42,2.76c0,.95.08,1.9.19,2.85a6.11,6.11,0,0,0,.5,2.23.11.11,0,0,0,.07,0,.18.18,0,0,0,.06,0,1.29,1.29,0,0,0,.24-.4,11.16,11.16,0,0,0,.37-1.25C22.32,13.15,23.38,13.44,23.17,14.11ZM21.38,7.22h0Z"/><path class="cls-1" d="M27.69,12a11.86,11.86,0,0,1-.3,2.21A6.81,6.81,0,0,1,26.76,16a1.29,1.29,0,0,1-1.76.47.42.42,0,0,1-.26-.28,3.83,3.83,0,0,1-.47-1.3A14.81,14.81,0,0,1,24,13a20.44,20.44,0,0,1-.13-3.23,7.51,7.51,0,0,1,.41-2.16c.21-.52.51-1.16,1.11-1.28a1.66,1.66,0,0,1,1.6,1,5.56,5.56,0,0,1,.64,2.17A12.38,12.38,0,0,1,27.69,12Zm-1.24-3.1c-.11-.49-.32-1.29-.81-1.55h0l-.08.08a2.56,2.56,0,0,0-.33.71A11.52,11.52,0,0,0,25,12a19.27,19.27,0,0,0,.23,2.16,4.15,4.15,0,0,0,.39,1.39,0,0,0,0,1,0,0v0h0l0,0a.19.19,0,0,0,.07-.06,2.11,2.11,0,0,0,.26-.5,10.94,10.94,0,0,0,.37-1.39A11.43,11.43,0,0,0,26.45,8.92Zm-.86-1.57.21,0Z"/><path class="cls-1" d="M31.16,16.63H29a.54.54,0,0,1-.54-.55V7a.55.55,0,0,1,1.09,0v8.53h1.6A.55.55,0,0,1,31.16,16.63Z"/><path class="cls-1" d="M36.07,6.93v9.15a.55.55,0,0,1-1.1,0v-4A7,7,0,0,1,33.76,12v4a.55.55,0,0,1-1.1,0V6.93a.55.55,0,0,1,1.1,0v4A5.57,5.57,0,0,0,35,11V6.93A.55.55,0,0,1,36.07,6.93Z"/><path class="cls-1" d="M39.42,16.52H37.57A.56.56,0,0,1,37,16V6.77a.54.54,0,0,1,.54-.53h1.85a.54.54,0,0,1,0,1.08H38.1v4.15h1.11a.54.54,0,0,1,0,1.08H38.1v2.89h1.32A.54.54,0,0,1,39.42,16.52Z"/><path class="cls-1" d="M44,16.93a.4.4,0,0,0,.12.1.51.51,0,0,0,.75-.4,3.29,3.29,0,0,0-.23-1.11c-.16-.66-.27-1.33-.46-2a7.4,7.4,0,0,0-.8-1.69,1.56,1.56,0,0,0,.47-.61,5.58,5.58,0,0,0,.26-2.44,3,3,0,0,0-.41-1.61,2.38,2.38,0,0,0-2.14-.71.55.55,0,0,0-.52.39.5.5,0,0,0-.08.29v9a.56.56,0,0,0,1.11,0v-3.9c.67.24.93,1,1.09,1.65s.27,1.17.4,1.75l.21.83A1.09,1.09,0,0,0,44,16.93Zm-1-6.59a1.17,1.17,0,0,1-.24.63c-.13.17-.41.14-.6.11h0V7.58a1.31,1.31,0,0,1,.39,0,.6.6,0,0,1,.21.08l.1.08a1.58,1.58,0,0,1,.21.85A6.92,6.92,0,0,1,42.91,10.34Z"/><path class="cls-1" d="M52.72,11.19a18.29,18.29,0,0,1-.19,2.57A4.8,4.8,0,0,1,52,15.4a2.43,2.43,0,0,1-2.35,1.15.61.61,0,0,1-.26-.08.5.5,0,0,1-.29-.47V6.67a.52.52,0,0,1,.4-.51l.37-.07a2.3,2.3,0,0,1,1.86.78C52.72,8.05,52.75,9.74,52.72,11.19ZM51.62,10A4.82,4.82,0,0,0,51.19,8a1.47,1.47,0,0,0-.68-.71l0,0H50.4a.8.8,0,0,0-.2-.07h0v8.26h0l.27-.07h0l.11-.07.08,0,.06,0s.17-.2.15-.15a2.12,2.12,0,0,0,.26-.48,6.76,6.76,0,0,0,.37-1.84A19.82,19.82,0,0,0,51.62,10Z"/><path class="cls-1" d="M56.08,16.52H54.22a.55.55,0,0,1-.53-.55V6.77a.53.53,0,0,1,.53-.53h1.86a.54.54,0,0,1,0,1.08H54.75v4.15h1.12a.54.54,0,0,1,0,1.08H54.75v2.89h1.33A.54.54,0,0,1,56.08,16.52Z"/><path class="cls-1" d="M77.9,7.83a13.08,13.08,0,0,0,.5-1.29A1.26,1.26,0,0,0,78.25,6,2.65,2.65,0,0,0,78,5.73a.85.85,0,0,0-.39-.16l-.34,0a1.77,1.77,0,0,0-.69.29c-.3.18-1,1.32-1.49,1.74s-1.75,2-2.48,2.8c-.22.21-.44.46-.68.74s-.49.59-.77.94c.43-1.32,1.08-3.47,1.23-4.3a2.61,2.61,0,0,0-.26-2,.74.74,0,0,0-.77-.35,3.41,3.41,0,0,0-2.13,1.32,44.49,44.49,0,0,0-2.79,4.45c.22-.8.58-2.19.81-2.79a7.54,7.54,0,0,0,.13-2.54.91.91,0,0,0-.55-.6A1.39,1.39,0,0,0,66,5.15a.84.84,0,0,0-.57.36.81.81,0,0,0-.14.64,21.44,21.44,0,0,1-.1,3c-.11.57-.26,1.24-.47,2s-.45,1.6-.76,2.49-.61,1.76-.93,2.62-.65,1.65-1,2.4a15.24,15.24,0,0,1-1,1.87,1,1,0,0,0-.1.67.72.72,0,0,0,.36.5,1.37,1.37,0,0,0,.43.13,2.18,2.18,0,0,0,.57,0,3.74,3.74,0,0,0,.53-.13.56.56,0,0,0,.34-.24A6.94,6.94,0,0,0,64,19.49a10.1,10.1,0,0,1,1-2.32c.56-1,1.15-2.1,1.77-3.19s1.24-2.07,1.85-3c.38-.58.72-1,1-1.41s.7-1.2.89-1.39c-.11.47-.43,1.62-.65,2.3s-.42,1.3-.61,1.86c-.43,1.33-.82,2.63-1.18,3.9a8.81,8.81,0,0,0-.34,3.43l.07.45a.84.84,0,0,0,.39.5.77.77,0,0,0,.61.11,1.3,1.3,0,0,0,.74-.55,1.21,1.21,0,0,0,.29-1,4.69,4.69,0,0,1,.39-2.42,13.86,13.86,0,0,1,2-3.33,23.83,23.83,0,0,1,1.55-1.86c.52-.54,1.83-2.35,2.26-2.76-.2.6-1.27,2.55-1.54,3.2-.54,1.38-1,2.68-1.46,3.91s-.77,2.35-1,3.37A12.81,12.81,0,0,0,71.62,22a3.33,3.33,0,0,0,.43,1.86.83.83,0,0,0,.33.29.77.77,0,0,0,.38.1.63.63,0,0,0,.46-.13.92.92,0,0,0,.3-.39,2.94,2.94,0,0,0,.24-.63,2.56,2.56,0,0,0,.12-.64A.88.88,0,0,0,73.8,22a2.31,2.31,0,0,1-.18-1.57,16.51,16.51,0,0,1,.53-2.4c.26-.89.56-1.8.91-2.75s.66-1.82,1-2.62.61-1.57.82-2.13S77.81,8.17,77.9,7.83Z"/><path class="cls-1" d="M239.36,13.12c-10.06-.85-19.59,3-29.23,5.17-10.58,2.4-21.35,1.72-31.94-.29C158.26,14.22,138.62,6.07,118,8.29a52.33,52.33,0,0,0-15.17,3.85c-2.75,1.19-5.27,2.85-7.93,4.23a27,27,0,0,1-2.68,1.23,8.88,8.88,0,0,1-3.24.94,1,1,0,0,1-.66-.21c-.78-.63-.71-2.36-.67-3.23A32.6,32.6,0,0,1,88,11.84a.56.56,0,0,0,.14-.09.43.43,0,0,0,.11-.12.26.26,0,0,1,.08-.13l.13-.17A51.92,51.92,0,0,0,91.8,7a18.83,18.83,0,0,0,1.71-2.92A4.75,4.75,0,0,0,94,2.27a3,3,0,0,0-.24-1.12A2.51,2.51,0,0,0,93,.33,2.94,2.94,0,0,0,91.17,0,1.88,1.88,0,0,0,90,.7,7.27,7.27,0,0,0,88.9,2.27,16.83,16.83,0,0,0,88,4.36c-.27.75-.5,1.49-.69,2.21S87,7.93,86.86,8.5s-.22,1-.28,1.28c-.16.82-.31,1.76-.44,2.82A18.48,18.48,0,0,0,86,14.8s0,0-.08-.06a.83.83,0,0,0-.41-.09,2.59,2.59,0,0,0-.48,0,1.74,1.74,0,0,0-.45.17.75.75,0,0,0-.31.27A7.28,7.28,0,0,1,82.65,17a5.08,5.08,0,0,1-2.36,1.09,2.33,2.33,0,0,1-2-.32.87.87,0,0,1-.14-.34,2.69,2.69,0,0,1-.08-.79,5.25,5.25,0,0,0,1.22-.53,11.24,11.24,0,0,0,1.31-.89c.44-.34.89-.71,1.33-1.1s.85-.77,1.24-1.16.62-.65,1-1.11a15.31,15.31,0,0,0,1.18-1.52,10.68,10.68,0,0,0,1-1.7,3.4,3.4,0,0,0,.32-1.61,2.08,2.08,0,0,0-.11-.57,1.74,1.74,0,0,0-.41-.64,1.9,1.9,0,0,0-.84-.5,4,4,0,0,0-3.73.72,10.08,10.08,0,0,0-1.9,2,17.58,17.58,0,0,0-1.51,2.51,20.33,20.33,0,0,0-1,2.39c-.13.36-.27.83-.42,1.39a12.14,12.14,0,0,0-.32,1.72,6.14,6.14,0,0,0,.05,1.72,2.12,2.12,0,0,0,.73,1.3,3.44,3.44,0,0,0,2.39.81,5.58,5.58,0,0,0,1.06-.1,7.19,7.19,0,0,0,1.71-.53,9.52,9.52,0,0,0,1.59-.89,8.67,8.67,0,0,0,1.34-1.14,7,7,0,0,0,.76-1,9.36,9.36,0,0,0,.33,2,2.71,2.71,0,0,0,1.47,1.78,3.21,3.21,0,0,0,2.26-.1c.84-.25,1.65-.61,2.46-.94a38.26,38.26,0,0,0,4.32-2.1c1.14-.63,2.28-1.28,3.43-1.9a47.06,47.06,0,0,1,13.84-4.68c10-1.78,20.18-.79,30,1.18,20.31,4.07,40.61,12.37,61.67,9.12,11.23-1.73,22-7,33.54-6C240.32,14.71,240.32,13.21,239.36,13.12ZM88.82,7.52c.09-.3.17-.61.26-.94a19.32,19.32,0,0,1,1.41-3.72,3.93,3.93,0,0,1,.82-1.16,2.21,2.21,0,0,1,.68,0c.15.05.25.1.28.16a.75.75,0,0,1,0,.35,2.84,2.84,0,0,1-.3,1,16.19,16.19,0,0,1-1.09,2A30.47,30.47,0,0,1,88.6,8.46C88.66,8.14,88.74,7.82,88.82,7.52ZM78.5,14.15a3.88,3.88,0,0,1,.21-.63A19.17,19.17,0,0,1,79.82,11a15.06,15.06,0,0,1,1.32-2.09,7.44,7.44,0,0,1,1.41-1.44,2.42,2.42,0,0,1,1.32-.57h.23a2.1,2.1,0,0,1,.56.07c.19,0,.28.13.28.26a3.16,3.16,0,0,1-.65,1.71,16.17,16.17,0,0,1-1.69,2.19,24.46,24.46,0,0,1-2.18,2.14,14.25,14.25,0,0,1-2.07,1.51C78.39,14.55,78.44,14.35,78.5,14.15Z"/><path class="cls-1" d="M247,13.31a3,3,0,0,0-.68-.12l-.44,0-.76,4.13.41.14a2.63,2.63,0,0,0,.69.12l.43,0,.77-4.12Z"/><path class="cls-1" d="M240.13,11.83a2.56,2.56,0,0,0-.68-.13l-.44,0-.76,4.12.41.14a2.71,2.71,0,0,0,.69.13l.43,0,.77-4.13Z"/><path class="cls-1" d="M242.49,11.88a2.36,2.36,0,0,0-.74-.14h-.41l-1,5.45.38.16a2,2,0,0,0,.72.14h.44l1-5.45Z"/><path class="cls-1" d="M244.87,11.91a2,2,0,0,0-.76-.14h-.41l-1.12,6,.36.16a1.66,1.66,0,0,0,.7.15h.08l.4,0,1.12-6.05Z"/><path class="cls-2" d="M246.24,13.69a2.13,2.13,0,0,1,.56.1l-.61,3.26a1.72,1.72,0,0,1-.55-.1Z"/><path class="cls-2" d="M239.42,12.2a2.63,2.63,0,0,1,.56.1l-.61,3.27a2.07,2.07,0,0,1-.55-.11Z"/><path class="cls-2" d="M241.75,12.24a1.55,1.55,0,0,1,.56.11L241.44,17a1.49,1.49,0,0,1-.55-.1Z"/><path class="cls-2" d="M244.12,12.27a1.54,1.54,0,0,1,.56.1l-1,5.27a1.2,1.2,0,0,1-.56-.11Z"/><path class="cls-2" d="M2.17,16.3A1.51,1.51,0,0,1,1,15.6a4.6,4.6,0,0,1-.58-1.82,16.17,16.17,0,0,1-.16-2.27c0-.31,0-.62,0-.93s0-.64,0-1,0-.55,0-.82a14.1,14.1,0,0,1,0-1.72A.27.27,0,0,1,.5,6.84a.21.21,0,0,1,.16.06A.21.21,0,0,1,.69,7a2.21,2.21,0,0,0,0,.37c0,.42,0,.83,0,1.24s0,.91,0,1.36c0,.25,0,.5,0,.74s0,.75,0,1.12A12.82,12.82,0,0,0,.9,14.13l0,.21a3.77,3.77,0,0,0,.27.8,2.16,2.16,0,0,0,.24.35l.1.09,0,0a1.73,1.73,0,0,0,.19.15l.1,0h0a.59.59,0,0,0,.21,0h.1l.11,0a.23.23,0,0,0,.14,0,.72.72,0,0,0,.25-.21,3.73,3.73,0,0,0,.61-2.12l0-.22a35.06,35.06,0,0,0-.11-6.35.23.23,0,0,1,0-.13.23.23,0,0,1,.15,0A.27.27,0,0,1,3.7,7c.08,1.1.17,2.41.19,3.72a19.42,19.42,0,0,1-.13,2.83v.14a4.58,4.58,0,0,1-.59,2.11A1.22,1.22,0,0,1,2.17,16.3Z"/><path class="cls-2" d="M5.7,16.38a.19.19,0,0,1-.22-.19V6.85c0-.18.18-.19.22-.19a.2.2,0,0,1,.21.14c.18.55.35,1.11.53,1.66.24.73.47,1.46.7,2.19a.31.31,0,0,0,.3.22h0a.31.31,0,0,0,.29-.22l1-3.45.12-.4a.19.19,0,0,1,.2-.14.19.19,0,0,1,.21.19v9.28a.19.19,0,0,1-.21.18c-.07,0-.22,0-.22-.18V10.41a.3.3,0,0,0-.27-.3h0a.31.31,0,0,0-.3.23c-.19.66-.4,1.34-.6,2v0a.2.2,0,0,1-.2.16.21.21,0,0,1-.21-.15l-.08-.24c-.21-.67-.43-1.34-.65-2a.31.31,0,0,0-.3-.22h0a.3.3,0,0,0-.27.3v6A.19.19,0,0,1,5.7,16.38Z"/><path class="cls-2" d="M14.65,16.36s-.27,0-.29-.23l-.24-2.56a.31.31,0,0,0-.31-.28H12a.31.31,0,0,0-.31.27l0,.15c-.11.83-.21,1.61-.29,2.42a.27.27,0,0,1-.29.23.2.2,0,0,1-.16-.06s0,0,0-.11c.13-1.21.29-2.4.48-3.66a25.82,25.82,0,0,1,1.31-5.69c0-.09.12-.21.25-.21h.76c.2,0,.23.23.24.28l.45,4.63.45,4.65c0,.07,0,.1,0,.11A.22.22,0,0,1,14.65,16.36Zm-1.42-9a.32.32,0,0,0-.3.21,30.46,30.46,0,0,0-1.08,4.92.37.37,0,0,0,.07.25.32.32,0,0,0,.24.11H13.7a.34.34,0,0,0,.23-.1.35.35,0,0,0,.08-.24c-.15-1.64-.31-3.28-.47-4.87a.32.32,0,0,0-.28-.28Z"/><path class="cls-2" d="M21.36,16.34a1.27,1.27,0,0,1-.54-.14c-.08,0-.09-.07-.09-.08l0-.08a3.14,3.14,0,0,1-.41-1.14A16.39,16.39,0,0,1,20,13l0-.21a20.72,20.72,0,0,1-.12-3A9.49,9.49,0,0,1,20.14,8a2.41,2.41,0,0,1,.63-1.23.86.86,0,0,1,.55-.24c.64,0,1.26,1,1.5,1.77a.15.15,0,0,1,0,.16.27.27,0,0,1-.22.1.2.2,0,0,1-.22-.16,3,3,0,0,0-.5-1,1.71,1.71,0,0,0-.24-.25A.32.32,0,0,0,21.35,7h-.1a.34.34,0,0,0-.17.11l0,0a1.61,1.61,0,0,0-.29.48,7.74,7.74,0,0,0-.45,2.9l0,.48c0,.79.07,1.6.17,2.41l0,.23a5.65,5.65,0,0,0,.52,2.12.25.25,0,0,0,.13.12.36.36,0,0,0,.2.05h.1a.55.55,0,0,0,.21-.15,1.4,1.4,0,0,0,.29-.5,7.23,7.23,0,0,0,.32-1l.06-.24a.21.21,0,0,1,.21-.15.29.29,0,0,1,.23.1.17.17,0,0,1,0,.17c-.05.16-.09.32-.13.48a3.67,3.67,0,0,1-.48,1.26A1,1,0,0,1,21.36,16.34Z"/><path class="cls-2" d="M29,16.4a.24.24,0,0,1-.24-.24V7.05a.24.24,0,0,1,.48,0v8.56a.31.31,0,0,0,.31.31h1.6a.22.22,0,0,1,.23.24.22.22,0,0,1-.23.24Z"/><path class="cls-2" d="M35.49,16.36c-.06,0-.24,0-.24-.2v-4a.32.32,0,0,0-.09-.23.36.36,0,0,0-.22-.09h-.3a8.65,8.65,0,0,1-.88-.05h0a.31.31,0,0,0-.21.07.31.31,0,0,0-.1.24v4.06c0,.18-.19.2-.24.2s-.24,0-.24-.2V7a.22.22,0,0,1,.24-.21s.24,0,.24.21v4a.3.3,0,0,0,.26.3,6,6,0,0,0,1,.08H35a.31.31,0,0,0,.3-.31V7a.24.24,0,0,1,.48,0v9.18C35.73,16.34,35.55,16.36,35.49,16.36Z"/><path class="cls-2" d="M37.55,16.28a.24.24,0,0,1-.23-.24V6.82a.23.23,0,0,1,.23-.22h1.86a.2.2,0,0,1,.21.23.24.24,0,0,1-.06.17.18.18,0,0,1-.15.06H38.08a.31.31,0,0,0-.31.31v4.16a.31.31,0,0,0,.31.31H39.2a.23.23,0,0,1,0,.46H38.08a.31.31,0,0,0-.31.31v2.9a.31.31,0,0,0,.31.31h1.33a.23.23,0,0,1,0,.46Z"/><path class="cls-2" d="M43.85,16.44a.3.3,0,0,1-.08-.16c0-.33-.14-1.31-.17-1.48-.19-1-.46-2.43-1.48-2.8L42,12a.3.3,0,0,0-.18.06.31.31,0,0,0-.13.25v3.92c0,.19-.19.21-.25.21s-.25,0-.25-.21v-9a.21.21,0,0,1,0-.11.36.36,0,0,0,0-.09.24.24,0,0,1,.24-.17h.31a1.89,1.89,0,0,1,1.58.6,2.77,2.77,0,0,1,.34,1.42,5.35,5.35,0,0,1-.23,2.33,1.12,1.12,0,0,1-.38.49.35.35,0,0,0-.12.21.32.32,0,0,0,.07.23,10.25,10.25,0,0,1,1.08,2.71c.1.32.17,1.07.23,1.42a.3.3,0,0,1-.08.24h0a.28.28,0,0,1-.4,0Zm-1.82-5a1.27,1.27,0,0,0,.28,0,.73.73,0,0,0,.59-.25,1.47,1.47,0,0,0,.31-.79,6.62,6.62,0,0,0,0-1.78,1.66,1.66,0,0,0-.26-1l-.08-.08-.06,0a.26.26,0,0,0-.1-.07l0,0a.52.52,0,0,0-.21-.07A1.68,1.68,0,0,0,42,7.32a.31.31,0,0,0-.31.31v3.51a.31.31,0,0,0,.31.31Z"/><path class="cls-2" d="M49.83,16.32h-.15l-.11,0,0,0a.18.18,0,0,1-.12-.19V6.73a.23.23,0,0,1,.17-.22,3.23,3.23,0,0,1,.33-.06H50a2,2,0,0,1,1.48.67c.92,1.08,1,2.7.93,4.13a18.88,18.88,0,0,1-.19,2.53,4.76,4.76,0,0,1-.5,1.54,2.12,2.12,0,0,1-1.91,1Zm.35-9.39a.31.31,0,0,0-.31.31v8.29a.32.32,0,0,0,.15.26.3.3,0,0,0,.16.05l.12,0a1.09,1.09,0,0,0,.3-.07s0,0,.06,0h0l.07-.05,0,0a.47.47,0,0,0,.16-.1l.06,0a.45.45,0,0,0,.07-.07l0,0,.09-.09a2.47,2.47,0,0,0,.3-.58,6.49,6.49,0,0,0,.38-1.9A21,21,0,0,0,52,10a4.94,4.94,0,0,0-.48-2.08,1.76,1.76,0,0,0-.81-.85l-.1,0-.07,0a1,1,0,0,0-.2-.07h-.11Z"/><path class="cls-2" d="M25.61,16.37a1.25,1.25,0,0,1-.53-.13c-.09,0-.09-.07-.1-.09a.2.2,0,0,0,0-.08,3.71,3.71,0,0,1-.42-1.21A15.27,15.27,0,0,1,24.26,13v-.17a19.12,19.12,0,0,1-.12-3,8,8,0,0,1,.39-2.08c.21-.51.46-1,.88-1.08h.14a1.52,1.52,0,0,1,1.14.89,5.52,5.52,0,0,1,.61,2.07,12.51,12.51,0,0,1,0,2.45A11.22,11.22,0,0,1,27,14.22c0,.13-.08.28-.13.43a3.86,3.86,0,0,1-.46,1.22,1,1,0,0,1-.84.5Zm-.11-.44.12,0,.12,0,.08,0a.19.19,0,0,0,.07-.06.28.28,0,0,0,.1-.1,2.91,2.91,0,0,0,.3-.57,11.07,11.07,0,0,0,.38-1.45,11.82,11.82,0,0,0,0-4.8,2.55,2.55,0,0,0-1-1.75.23.23,0,0,0-.14,0,.36.36,0,0,0-.24.09l-.08.08,0,0a3.38,3.38,0,0,0-.36.79,11.46,11.46,0,0,0-.22,4,20.43,20.43,0,0,0,.23,2.21,4.65,4.65,0,0,0,.42,1.49A.34.34,0,0,0,25.5,15.93Z"/><path class="cls-2" d="M54.24,16.28A.24.24,0,0,1,54,16V6.82a.22.22,0,0,1,.22-.22H56.1a.2.2,0,0,1,.21.23.29.29,0,0,1-.05.17.21.21,0,0,1-.16.06H54.78a.31.31,0,0,0-.32.31v4.16a.31.31,0,0,0,.32.31h1.11a.23.23,0,0,1,0,.46H54.78a.31.31,0,0,0-.32.31v2.9a.31.31,0,0,0,.32.31H56.1a.23.23,0,0,1,0,.46Z"/><path class="cls-2" d="M77.55,7.17c.06-.14.16-.36.2-.47a.75.75,0,0,0,0-.16,1.14,1.14,0,0,0-.16-.15l-.06,0h-.24a1.27,1.27,0,0,0-.41.2,6.21,6.21,0,0,0-.52.63,6.5,6.5,0,0,1-.89,1c-.26.23-.86.93-1.39,1.55-.37.43-.74.87-1,1.19h0c-.2.21-.42.44-.64.71l-.77.92-2,2.52,1-3.08c.41-1.27,1.06-3.41,1.2-4.2a2,2,0,0,0-.16-1.5c-.07-.1-.11-.1-.15-.1h-.07a2.93,2.93,0,0,0-1.73,1.12,23.39,23.39,0,0,0-1.81,2.83c-.32.55-.62,1.06-.9,1.51L64.77,15.2l1.06-3.94.09-.34c.22-.82.53-1.94.74-2.5a6.94,6.94,0,0,0,.09-2.2s0-.07-.22-.17a1,1,0,0,0-.41-.12h-.05a.26.26,0,0,0-.18.12.18.18,0,0,0,0,.17,19.67,19.67,0,0,1-.09,3.2q-.16.88-.48,2c-.21.77-.46,1.62-.76,2.51s-.62,1.79-.94,2.63-.66,1.66-1,2.42a16.71,16.71,0,0,1-1,1.91.39.39,0,0,0,0,.26.11.11,0,0,0,.06.09h0a.36.36,0,0,0,.2,0H62l.24,0a2.57,2.57,0,0,0,.44-.11s0,0,0,0a6.23,6.23,0,0,0,.72-1.74,11.23,11.23,0,0,1,1-2.45c.56-1,1.15-2.1,1.77-3.18s1.26-2.09,1.86-3l1.47-2.13a8.38,8.38,0,0,1,.8-1.09l.38-.34a.32.32,0,0,1,.54.3l-.21.93c-.11.49-.44,1.65-.66,2.34s-.42,1.31-.61,1.86c-.42,1.31-.81,2.61-1.17,3.86a8.22,8.22,0,0,0-.32,3.16l.06.4a.25.25,0,0,0,.11.12.24.24,0,0,0,.13.05h.06s.14,0,.38-.33a.67.67,0,0,0,.17-.56,5.26,5.26,0,0,1,.41-2.72,14.57,14.57,0,0,1,2.11-3.46,22.77,22.77,0,0,1,1.59-1.9c.22-.23.63-.77,1-1.29.19-.24.38-.42.56-.61s.59-.61.76-.77l.13-.13.84-1a.22.22,0,0,1,.36.23L76.35,9.2c-.09.27-.18.41-.36.84a6.16,6.16,0,0,1-.24.6c-.25.48-.64,1.54-.75,1.78-.53,1.35-1,2.65-1.43,3.86a33.76,33.76,0,0,0-1,3.3,12.05,12.05,0,0,0-.37,2.53,2.82,2.82,0,0,0,.34,1.51.25.25,0,0,0,.09.09.27.27,0,0,0,.12,0h.07l.05,0a.44.44,0,0,0,.09-.14,3.66,3.66,0,0,0,.21-.53,2.49,2.49,0,0,0,.09-.51,1.38,1.38,0,0,0,0-.14A2.91,2.91,0,0,1,73,20.45,17.66,17.66,0,0,1,73.55,18c.26-.89.57-1.82.91-2.77s.67-1.82,1-2.62.61-1.56.81-2.11c.09-.24.27-.69.46-1.17s.53-1.29.57-1.46S77.44,7.42,77.55,7.17Z"/><path class="cls-2" d="M77.58,16.31l.24-.07a4.72,4.72,0,0,0,1.09-.47,11.73,11.73,0,0,0,1.23-.84c.43-.33.86-.69,1.29-1.07s.84-.76,1.21-1.13.61-.64,1-1.08a14.42,14.42,0,0,0,1.13-1.46,10.09,10.09,0,0,0,.9-1.59,2.77,2.77,0,0,0,.27-1.31v0a1.27,1.27,0,0,0-.09-.38,1.07,1.07,0,0,0-.26-.42A1.66,1.66,0,0,0,85,6.1,3.07,3.07,0,0,0,84,6h-.22a3.42,3.42,0,0,0-1.93.76A9.35,9.35,0,0,0,80.06,8.6,16.58,16.58,0,0,0,78.62,11a20.9,20.9,0,0,0-1,2.32c-.12.35-.26.8-.4,1.34a10.68,10.68,0,0,0-.31,1.63,5.56,5.56,0,0,0,0,1.53,1.59,1.59,0,0,0,.52.95h0a2.82,2.82,0,0,0,2,.65,5.34,5.34,0,0,0,1-.09A6.93,6.93,0,0,0,82,18.86,8.83,8.83,0,0,0,83.49,18,8,8,0,0,0,84.73,17a5.46,5.46,0,0,0,.68-.86l.36-.56-.19-.11,0,0h0l0,0h-.09a1.55,1.55,0,0,0-.37,0,.94.94,0,0,0-.28.1l-.07,0h0A7.73,7.73,0,0,1,83,17.63a5.67,5.67,0,0,1-2.62,1.22,4.69,4.69,0,0,1-.88.09,2.46,2.46,0,0,1-1.65-.54l0,0h0a1.28,1.28,0,0,1-.3-.6,3.44,3.44,0,0,1-.11-.95v-.26A.26.26,0,0,1,77.58,16.31Zm.14-1.55c0-.2.1-.41.15-.62s.14-.45.23-.69a20.41,20.41,0,0,1,1.14-2.6,14.86,14.86,0,0,1,1.37-2.18,7.66,7.66,0,0,1,1.52-1.54,3,3,0,0,1,1.64-.69H84a3.27,3.27,0,0,1,.7.08.86.86,0,0,1,.73.83,3.62,3.62,0,0,1-.73,2A18.27,18.27,0,0,1,83,11.66a26.77,26.77,0,0,1-2.22,2.17,14.29,14.29,0,0,1-2.16,1.58l-1,.55a.09.09,0,0,1-.12-.1Z"/><path class="cls-2" d="M239.36,13.65c-10-.85-19.49,3-29.09,5.15-10.68,2.42-21.54,1.74-32.22-.29C158.17,14.73,138.57,6.6,118,8.81a51.43,51.43,0,0,0-14.9,3.78A66.68,66.68,0,0,0,97,15.8a31,31,0,0,1-6.67,3,8.76,8.76,0,0,1-1.24.24,2.13,2.13,0,0,1-1.2-.08c-.4-.2-.52-.67-.67-1.07A8.4,8.4,0,0,1,87,15.22c0-.94.14-2.05.31-3.3l0-.27s0,0,0,0l.3-.25a1.52,1.52,0,0,0,.19-.21l0,0,0,0A49,49,0,0,0,91.2,6.87a17.83,17.83,0,0,0,1.65-2.81,4,4,0,0,0,.44-1.57,2.18,2.18,0,0,0-.17-.86A1.71,1.71,0,0,0,91.46.81h-.34a1.34,1.34,0,0,0-.82.49,6.31,6.31,0,0,0-1,1.44,16.93,16.93,0,0,0-.86,2c-.26.73-.48,1.46-.66,2.15s-.34,1.35-.47,1.91l-.27,1.25c-.16.81-.31,1.73-.44,2.77-.09.71-.14,1.42-.16,2.11l0,.82,0,.63a8.4,8.4,0,0,0,.31,1.85,2.16,2.16,0,0,0,1.07,1.28,2.44,2.44,0,0,0,2,0l1.64-.64.66-.25a3.31,3.31,0,0,0,.68-.28,36.06,36.06,0,0,0,3.24-1.6c1.29-.71,2.56-1.45,3.87-2.14a47.52,47.52,0,0,1,14-4.74C124,8,134.34,9,144.29,11c20.2,4,40.44,12.34,61.4,9.12,11.27-1.74,22.06-7,33.67-6C239.65,14.12,239.65,13.67,239.36,13.65ZM87.92,8.51c.07-.34.15-.66.23-1l.26-1a19.45,19.45,0,0,1,1.46-3.83c.58-1,.83-1.27,1.06-1.39L91,1.31h.38a2,2,0,0,1,.64.08,1,1,0,0,1,.61.4,1.26,1.26,0,0,1,.15.66,3.38,3.38,0,0,1-.36,1.28,16.35,16.35,0,0,1-1.12,2.06A33.17,33.17,0,0,1,89,9L87.4,10.94Z"/></g></g></svg>